<?xml version="1.0" encoding="UTF-8"?>
<!DOCTYPE svg PUBLIC "-//W3C//DTD SVG 1.1//EN" "http://www.w3.org/Graphics/SVG/1.1/DTD/svg11.dtd">
<!-- Creator: CorelDRAW 2021 (64-Bit) -->
<svg xmlns="http://www.w3.org/2000/svg" xml:space="preserve" width="42.3743mm" height="12.6188mm" version="1.1" style="shape-rendering:geometricPrecision; text-rendering:geometricPrecision; image-rendering:optimizeQuality; fill-rule:evenodd; clip-rule:evenodd"
viewBox="0 0 2279.47 678.81"
 xmlns:xlink="http://www.w3.org/1999/xlink"
 xmlns:xodm="http://www.corel.com/coreldraw/odm/2003">
 <defs>
  <style type="text/css">
   <![CDATA[
    .fil2 {fill:black}
    .fil3 {fill:#DB0000}
    .fil4 {fill:#FEFEFE;fill-rule:nonzero}
    .fil0 {fill:black;fill-rule:nonzero}
    .fil1 {fill:#DB0000;fill-rule:nonzero}
   ]]>
  </style>
 </defs>
 <g id="Layer_x0020_1">
  <metadata id="CorelCorpID_0Corel-Layer"/>
  <g id="_2509065971568">
   <path class="fil0" d="M789.46 651.37l-34.04 0 0 -264.89 34.04 0 0 264.89zm47.35 -181.28l32.56 0 0 25.16 1.48 0c5.18,-8.88 13.15,-16.29 23.86,-22.2 10.72,-5.91 21.89,-8.88 33.49,-8.88 22.19,0 39.28,6.36 51.23,19.05 11.96,12.69 17.95,30.79 17.95,54.2l0 113.95 -34.04 0 0 -111.73c0,-29.61 -15.66,-44.39 -44.77,-44.39 -13.57,0 -24.92,5.49 -34.04,16.46 -9.12,10.97 -13.69,24.13 -13.69,39.4l0 100.26 -34.04 0 0 -181.28zm337.41 130.97c0,15.78 -6.92,29.11 -20.72,39.95 -13.8,10.84 -31.19,16.28 -52.16,16.28 -18.25,0 -34.29,-4.76 -48.09,-14.24 -13.8,-9.48 -23.68,-22.01 -29.6,-37.55l30.33 -12.95c4.44,10.85 10.93,19.31 19.42,25.34 8.5,6.03 17.82,9.06 27.93,9.06 10.85,0 19.92,-2.35 27.19,-7.03 7.27,-4.69 10.91,-10.24 10.91,-16.64 0,-11.59 -8.64,-21.03 -26.64,-25.53l-31.08 -7.77c-35.26,-8.82 -52.91,-25.89 -52.91,-51.06 0,-16.52 6.73,-29.79 20.16,-39.76 13.43,-9.98 30.65,-14.99 51.61,-14.99 16.04,0 30.54,3.84 43.47,11.47 12.94,7.64 22.01,17.88 27.19,30.71l-30.33 12.58c-3.45,-7.64 -9.07,-13.64 -16.83,-17.94 -7.76,-4.3 -16.47,-6.47 -26.08,-6.47 -8.88,0 -16.85,2.23 -23.87,6.66 -7.01,4.43 -10.54,9.87 -10.54,16.27 0,10.36 9.88,17.24 29.23,22.2l27.38 7.03c35.92,9.22 54.02,27.02 54.02,54.39zm188.68 50.31l-32.56 0 0 -25.16 -1.48 0c-5.18,8.88 -13.14,16.28 -23.87,22.2 -10.72,5.92 -21.88,8.88 -33.48,8.88 -22.2,0 -39.28,-6.35 -51.24,-19.05 -11.96,-12.71 -17.95,-30.77 -17.95,-54.2l0 -113.95 34.04 0 0 111.73c0,29.59 15.66,44.39 44.76,44.39 13.57,0 24.92,-5.49 34.04,-16.46 9.12,-10.96 13.69,-24.11 13.69,-39.4l0 -100.26 34.04 0 0 181.28zm75.47 0l-34.04 0 0 -181.28 32.56 0 0 29.6 1.47 0c3.46,-9.62 10.56,-17.83 21.28,-24.61 10.71,-6.77 21.27,-10.17 31.63,-10.17 9.87,0 18.25,1.47 25.16,4.44l-10.36 32.93c-4.19,-1.73 -10.85,-2.59 -19.97,-2.59 -12.83,0 -24,5.19 -33.49,15.54 -9.48,10.34 -14.24,22.46 -14.24,36.26l0 99.89zm117.66 -55.49c0,8.88 3.76,16.28 11.28,22.2 7.52,5.92 16.34,8.88 26.46,8.88 14.3,0 27.07,-5.31 38.28,-15.91 11.21,-10.6 16.84,-23.06 16.84,-37.37 -10.61,-8.39 -25.41,-12.58 -44.4,-12.58 -13.81,0 -25.34,3.33 -34.59,9.99 -9.25,6.66 -13.87,14.92 -13.87,24.79zm44.02 -131.71c25.15,0 45.02,6.73 59.56,20.16 14.54,13.43 21.82,31.9 21.82,55.31l0 111.73 -32.55 0 0 -25.16 -1.48 0c-14.06,20.72 -32.81,31.08 -56.24,31.08 -19.98,0 -36.7,-5.93 -50.13,-17.75 -13.43,-11.83 -20.16,-26.64 -20.16,-44.4 0,-18.75 7.1,-33.68 21.28,-44.77 14.17,-11.09 33.11,-16.65 56.78,-16.65 20.23,0 36.88,3.71 49.95,11.1l0 -7.77c0,-11.85 -4.7,-21.9 -14.06,-30.15 -9.36,-8.26 -20.34,-12.39 -32.93,-12.39 -18.99,0 -34.04,8.02 -45.13,24.05l-29.97 -18.87c16.53,-23.68 40.94,-35.52 73.26,-35.52zm119.86 5.92l32.56 0 0 25.16 1.47 0c5.19,-8.88 13.15,-16.29 23.87,-22.2 10.72,-5.91 21.88,-8.88 33.48,-8.88 22.2,0 39.29,6.36 51.24,19.05 11.95,12.69 17.95,30.79 17.95,54.2l0 113.95 -34.04 0 0 -111.73c0,-29.61 -15.66,-44.39 -44.77,-44.39 -13.57,0 -24.92,5.49 -34.04,16.46 -9.12,10.97 -13.7,24.13 -13.7,39.4l0 100.26 -34.04 0 0 -181.28zm283.4 187.2c-26.89,0 -49.41,-8.95 -66.97,-27.38 -17.69,-18.55 -26.26,-41.8 -26.26,-69.18 0,-27.87 8.7,-51.01 26.26,-69.18 17.69,-18.3 40.08,-27.38 66.97,-27.38 18.49,0 34.65,4.63 48.46,13.87 13.81,9.25 24.17,22.01 31.08,38.3l-31.08 12.95c-9.62,-22.7 -26.51,-34.04 -50.68,-34.04 -15.54,0 -29.06,6.24 -40.32,18.87 -11.16,12.51 -16.65,28.11 -16.65,46.61 0,18.5 5.49,34.11 16.65,46.62 11.26,12.63 24.78,18.87 40.32,18.87 24.91,0 42.42,-11.34 52.53,-34.04l30.34 12.95c-6.66,16.28 -17.08,29.04 -31.26,38.29 -14.19,9.25 -30.65,13.87 -49.39,13.87zm189.79 0c-26.63,0 -48.59,-9.12 -65.85,-27.38 -17.26,-18.25 -25.9,-41.31 -25.9,-69.18 0,-27.62 8.39,-50.62 25.16,-69 16.77,-18.38 38.23,-27.56 64.37,-27.56 26.89,0 48.3,8.71 64.19,26.08 15.9,17.38 26.98,41.93 23.87,73.07l-0.37 3.7 -142.43 0c0.49,17.75 6.42,32.07 17.76,42.92 11.33,10.84 24.91,16.27 40.7,16.27 21.7,0 38.72,-10.85 51.05,-32.56l30.34 14.8c-8.14,15.29 -19.44,27.26 -33.85,35.89 -14.42,8.62 -30.77,12.95 -49.02,12.95zm-54.39 -118.38l103.96 0c-0.98,-12.58 -6.12,-23.01 -15.35,-31.26 -9.24,-8.25 -21.65,-12.39 -37.18,-12.39 -12.82,0 -23.87,3.95 -33.11,11.83 -9.24,7.88 -15.36,18.49 -18.32,31.82z"/>
   <path class="fil1" d="M949.6 249.86c-13.15,6.01 -26.29,8.64 -40.18,8.64 -44.32,0 -74.35,-30.8 -74.35,-75.09 0,-45.45 30.03,-75.11 75.09,-75.11 25.18,0 45.82,9.39 63.85,29.29l47.31 -42.81c-25.92,-31.17 -65.71,-48.05 -114.9,-48.05 -85.24,0 -146.44,56.69 -146.44,136.68 0,79.97 61.21,136.67 144.94,136.67 38.3,0 79.99,-11.64 110.4,-33.42l0 -108.89 -65.71 0 0 72.09zm196.4 -141.93c-31.91,0 -66.47,8.27 -89.74,23.66l24.03 48.43c13.89,-10.89 35.66,-17.65 55.19,-17.65 28.17,0 42.06,11.64 43.17,32.3l-40.55 0c-63.08,0 -90.49,23.28 -90.49,60.83 0,35.28 27.04,62.71 75.85,62.71 29.66,0 49.94,-10.15 60.07,-29.68l0 26.29 66.47 0 0 -113.02c0,-64.59 -37.93,-93.88 -104.01,-93.88zm-2.63 165.21c-16.91,0 -26.66,-8.62 -26.66,-20.65 0,-12.38 8.25,-20.65 31.17,-20.65l30.78 0 0 17.65c-5.62,16.14 -19.51,23.65 -35.28,23.65zm238.44 -165.21c-31.92,0 -66.47,8.27 -89.74,23.66l24.03 48.43c13.89,-10.89 35.66,-17.65 55.19,-17.65 28.17,0 42.06,11.64 43.18,32.3l-40.56 0c-63.08,0 -90.49,23.28 -90.49,60.83 0,35.28 27.03,62.71 75.85,62.71 29.66,0 49.94,-10.15 60.07,-29.68l0 26.29 66.47 0 0 -113.02c0,-64.59 -37.93,-93.88 -104.01,-93.88zm-2.63 165.21c-16.91,0 -26.67,-8.62 -26.67,-20.65 0,-12.38 8.25,-20.65 31.17,-20.65l30.78 0 0 17.65c-5.62,16.14 -19.51,23.65 -35.28,23.65zm299.64 -236.93l0 92.75c-13.52,-14.26 -32.67,-21.02 -56.32,-21.02 -55.58,0 -100.27,40.18 -100.27,104.77 0,64.95 44.69,105.51 100.27,105.51 26.27,0 46.18,-7.52 59.69,-23.66l0 20.28 67.96 0 0 -278.62 -71.33 0zm-41.31 225.3c-24.41,0 -42.81,-17.66 -42.81,-48.8 0,-30.8 18.4,-48.08 42.81,-48.08 24.03,0 42.43,17.28 42.43,48.08 0,31.15 -18.4,48.8 -42.43,48.8zm158.47 53.33l71.35 0 0 -203.53 -71.35 0 0 203.53z"/>
   <path class="fil2" d="M1792.03 30.54l30.22 69.54c2.23,-1.76 4.03,-3.39 6.09,-5.77l37.14 -35.58c2.04,-2.08 4.3,-3.77 6.4,-5.84 1.11,-1.1 1.65,-1.9 2.85,-2.94l12.59 -11.86c2.99,-3.16 5.84,-5.38 7.74,-7.39 2.91,-3.08 6.17,-5.68 7.69,-7.44 2.74,-3.18 5.4,-4.93 7.75,-7.38 3.53,-3.69 4.81,-4.5 7.89,-7.56 1.01,-1.01 2.03,-2.23 2.89,-3.01 -5.8,3.13 -11.67,6.76 -17.66,10.13 -9.92,5.59 -25.9,14.8 -34.78,21.21 -3.09,2.23 -38.92,28.64 -41.54,28.88 -1.19,0.11 -6.15,-5.62 -7.18,-6.67l-28.07 -28.33z"/>
   <path class="fil2" d="M437.27 388.28l135.84 -0.08c-2.49,25.18 -19.29,58.75 -29.77,77.16 -39.77,69.86 -122.82,116.66 -207.45,116.65 -64.59,-0.01 -123.11,-27.27 -157.9,-58.09l-26.92 -27.09c-30.55,-35.16 -39.75,-65.23 -53.13,-108.75l-97.53 0.07c1.54,53.43 43.45,134.22 78.47,173.64 3.5,3.94 6.36,6.15 9.75,10.04 10.74,12.29 21.51,21.22 33.58,31.43 100.34,84.9 260.73,103.69 387.15,28.35 91.69,-54.65 154.5,-150.44 164.65,-259.5 1.57,-16.85 4.5,-66.85 -2.89,-79.54 -3.5,-3.46 -231.11,-1.51 -234.76,-1.56 -5.67,-17.91 -20.74,-34.51 -40.49,-46.24 -10.17,48.35 -20.75,96.17 -31.81,142.42 -30.32,-24.29 -33.69,-28.25 -85.27,-32.64l82.96 -123.68c-16.67,-4.05 -34.45,-4.67 -51.62,-0.53 -115.72,27.85 -112.75,190.8 -2.29,218.01 30.7,7.56 57.05,2.76 81.91,-10.27 22.53,-11.82 34.15,-27.12 47.51,-49.78z"/>
   <path class="fil3" d="M-0 291.11l97.78 -0.05c8.85,-22.21 6.37,-33.77 24.52,-66.41 87.56,-157.49 295.67,-165.66 397.64,-42.57 2.71,3.28 7.63,9.34 10.74,11.81l111.13 0.15c-3.58,-20.19 -42.42,-68.24 -55.32,-83.99 -10.25,-12.52 -22.72,-22.91 -36.38,-33.95 -211.45,-170.91 -519.42,-34.3 -550.11,215.02z"/>
   <path class="fil3" d="M362.92 383.71c18.12,-75.82 34.97,-155.86 50.83,-235.54l-136.1 202.9c51.58,4.39 54.94,8.35 85.27,32.64z"/>
   <path class="fil4" d="M436.81 339.73c2.62,-1.83 4.1,-5.01 4.1,-8.97 0,-6.38 -3.93,-10.81 -11.98,-10.81l-15.66 0 0 41.32 16.54 0c8.22,0 12.59,-4.19 12.59,-11.33 0,-5.02 -2.14,-8.55 -5.59,-10.21zm-9.01 -11.33c2.88,0 4.37,1.36 4.37,3.95 0,2.66 -1.49,4.02 -4.37,4.02l-5.95 0 0 -7.97 5.95 0zm1.31 24.44l-7.27 0 0 -8.38 7.27 0c2.97,0 4.55,1.36 4.55,4.19 0,2.83 -1.58,4.19 -4.55,4.19zm45.27 -32.88l-8.4 0 -7.26 16.41 -7.26 -16.41 -9.14 0 11.68 26.33 0 14.99 8.66 0 0 -14.81 11.72 -26.5zm35.42 31.1c-1.53,0.95 -3.06,1.36 -4.68,1.36 -5.16,0 -8.66,-4.84 -8.66,-11.8 0,-7.14 3.5,-11.81 8.75,-11.81 2.93,0 5.34,1.48 7.44,4.61l5.51 -6.73c-3.02,-4.9 -7.65,-7.55 -13.38,-7.55 -9.92,0 -17.06,8.91 -17.06,21.49 0,12.57 7.13,21.49 16.89,21.49 4.46,0 9.32,-1.83 12.86,-5.26l0 -17.12 -7.65 0 0 11.33zm28.6 11.04c9.8,0 17.01,-9.1 17.01,-21.49 0,-12.4 -7.22,-21.49 -17.01,-21.49 -9.8,0 -17.01,9.09 -17.01,21.49 0,12.39 7.21,21.49 17.01,21.49zm0 -9.68c-4.64,0 -8.26,-4.66 -8.26,-11.8 0,-7.14 3.63,-11.81 8.26,-11.81 4.64,0 8.27,4.67 8.27,11.81 0,7.14 -3.63,11.8 -8.27,11.8zm37 9.68c9.79,0 17.01,-9.1 17.01,-21.49 0,-12.4 -7.22,-21.49 -17.01,-21.49 -9.8,0 -17.01,9.09 -17.01,21.49 0,12.39 7.21,21.49 17.01,21.49zm0 -9.68c-4.64,0 -8.27,-4.66 -8.27,-11.8 0,-7.14 3.63,-11.81 8.27,-11.81 4.64,0 8.27,4.67 8.27,11.81 0,7.14 -3.63,11.8 -8.27,11.8zm21.56 8.85l14.48 0c10.15,0 17.1,-7.97 17.1,-20.66 0,-12.7 -6.95,-20.66 -17.1,-20.66l-14.48 0 0 41.32zm8.66 -9.32l0 -22.67 5.47 0c5.21,0 8.71,4.19 8.71,11.33 0,7.14 -3.5,11.33 -8.71,11.33l-5.47 0zm55.68 9.32l-11.37 -21.36 10.67 -19.96 -9.36 0 -6.04 11.93 -6.12 -11.93 -9.75 0 10.67 20.43 -11.16 20.89 9.88 0 6.26 -12.81 6.35 12.81 9.97 0z"/>
  </g>
 </g>
</svg>
